<?xml version="1.0" standalone="no"?><!DOCTYPE svg PUBLIC "-//W3C//DTD SVG 1.1//EN" "http://www.w3.org/Graphics/SVG/1.1/DTD/svg11.dtd"><svg class="icon" width="200px" height="198.45px" viewBox="0 0 1032 1024" version="1.1" xmlns="http://www.w3.org/2000/svg"><path d="M517.12 960c-247.47008 0-448-200.52992-448-448 0-247.46496 200.52992-448 448-448s448 200.53504 448 448c0 247.47008-200.52992 448-448 448z m0-842.66496C299.52 117.33504 122.44992 294.4 122.44992 512S299.52 906.67008 517.12 906.67008 911.79008 729.6 911.79008 512 734.72 117.33504 517.12 117.33504z" fill="#4887ED" /><path d="M491.52 669.87008v-78.94016c0-64 36.27008-83.2 59.72992-87.46496 44.8-14.93504 70.4-44.8 70.4-87.46496a95.59552 95.59552 0 0 0-96-96h-12.8a95.60064 95.60064 0 0 0-96 96H363.52C363.52 332.8 431.79008 266.66496 512.84992 266.66496h12.8c83.2 0 149.34016 68.26496 149.34016 149.33504 0 66.13504-40.54016 115.2-110.94016 138.67008-6.4 2.12992-19.2 4.25984-19.2 36.25984v78.94016H491.52z" fill="#639DF6" /><path d="M489.39008 712.52992H542.72v46.94016H489.39008z" fill="#8EB7FE" /></svg>