<?xml version="1.0" standalone="no"?><!DOCTYPE svg PUBLIC "-//W3C//DTD SVG 1.1//EN" "http://www.w3.org/Graphics/SVG/1.1/DTD/svg11.dtd"><svg class="icon" width="200px" height="200.00px" viewBox="0 0 1024 1024" version="1.1" xmlns="http://www.w3.org/2000/svg"><path d="M512 512m-512 0a512 512 0 1 0 1024 0 512 512 0 1 0-1024 0Z" fill="#E9F4FF" /><path d="M525.853257 241.327543l195.642514 113.327543c16.544914 9.654857 27.560229 27.648 27.560229 44.192914v228.059429c0 19.324343-9.6256 37.302857-27.560229 44.222171l-195.642514 113.298286c-8.265143 4.125257-15.1552 5.514971-24.7808 5.514971-9.654857 0-16.530286-2.779429-27.589486-6.904686l-194.2528-111.981714c-16.544914-9.567086-27.5456-27.516343-27.5456-44.119771V398.848c0-19.338971 9.654857-37.332114 27.5456-44.192914l195.642515-113.327543c15.1552-9.698743 37.215086-9.698743 50.980571 0zM304.171886 392.382171l-5.558857 2.6624c-0.936229 0.351086-2.194286 2.4576-2.194286 7.138743l0.073143 223.056457c0 1.989486 3.203657 7.153371 7.68 9.801143l182.4768 104.6528 6.729143 2.413715 2.179657 0.643657 1.755428 0.190171h1.960229l3.013486-0.190171 189.3376-107.666286 5.588114-2.691657c0.936229-0.365714 2.165029-2.428343 2.165028-7.153372V402.183314c0-1.974857-3.159771-7.138743-7.753142-9.801143l-189.3376-106.349714-2.881829-1.857828a13.941029 13.941029 0 0 0-8.513829 1.872457l-186.719085 106.335085z m194.165028 83.309715l113.429943-60.050286a26.624 26.624 0 0 1 36.512914 12.112457c6.729143 14.145829 1.389714 31.100343-12.244114 38.824229l-114.878171 65.2288v128.833828a24.868571 24.868571 0 1 1-49.751772 0v-131.101257l-109.714285-64.629028a30.910171 30.910171 0 0 1-11.717486-40.872229 28.0576 28.0576 0 0 1 38.912-11.381029l109.450971 63.049143z" fill="#5F96F5" /></svg>