<?xml version="1.0" standalone="no"?><!DOCTYPE svg PUBLIC "-//W3C//DTD SVG 1.1//EN" "http://www.w3.org/Graphics/SVG/1.1/DTD/svg11.dtd"><svg t="1607238673308" class="icon" viewBox="0 0 1024 1024" version="1.1" xmlns="http://www.w3.org/2000/svg" p-id="5275" xmlns:xlink="http://www.w3.org/1999/xlink" width="200" height="200"><defs><style type="text/css"></style></defs><path d="M311.1424 474.7776h8.2432c24.6784 0 44.8 20.0704 44.8 44.8v184.7296h69.8368v-151.1424c0-24.6784 20.0704-44.8 44.8-44.8h80.8448c24.6784 0 44.8 20.0704 44.8 44.8v151.1424h69.8368v-184.7296c0-24.6784 20.0704-44.8 44.8-44.8h8.2432L519.168 273.2032 311.1424 474.7776z" fill="#9fc6ff" p-id="5276"></path><path d="M511.8464 114.8416c-218.9312 0-397.056 178.1248-397.056 397.056s178.1248 397.056 397.056 397.056 397.056-178.1248 397.056-397.056-178.1248-397.056-397.056-397.056z m272.7424 383.1296a44.57472 44.57472 0 0 1-41.5232 27.9552h-17.664v184.7296c0 24.6784-20.0704 44.8-44.8 44.8h-82.688c-24.6784 0-44.8-20.0704-44.8-44.8v-151.1424H485.1712v151.1424c0 24.6784-20.0704 44.8-44.8 44.8H357.7344c-24.6784 0-44.8-20.0704-44.8-44.8v-184.7296h-17.664c-18.3296 0-34.6112-11.008-41.5232-27.9552a44.70272 44.70272 0 0 1 10.3424-48.9984l223.8976-216.9344a44.53888 44.53888 0 0 1 62.3104 0l223.8976 216.9344a44.6464 44.6464 0 0 1 10.3936 48.9984z" fill="#9fc6ff" p-id="5277"></path></svg>