<?xml version="1.0" standalone="no"?><!DOCTYPE svg PUBLIC "-//W3C//DTD SVG 1.1//EN" "http://www.w3.org/Graphics/SVG/1.1/DTD/svg11.dtd"><svg class="icon" width="200px" height="200.00px" viewBox="0 0 1024 1024" version="1.1" xmlns="http://www.w3.org/2000/svg"><path d="M580.775 557.01m-306.5 0a306.5 306.5 0 1 0 613 0 306.5 306.5 0 1 0-613 0Z" fill="#BAD4FF" /><path d="M672.895 556.65l0.06 0.07-130.21 102.9c-10.787 10.571-28.063 10.522-38.79-0.11l-136.95-102.84 0.08-0.1c-5.661-5.031-6.171-13.699-1.14-19.36 5.031-5.661 13.699-6.171 19.36-1.14 0.368 0.314 0.719 0.647 1.05 1l0.11-0.1 123.05 89.1V328.74c0-7.633 6.187-13.82 13.82-13.82s13.82 6.187 13.82 13.82v297.63L653.565 537l0.14 0.15c5.14-5.56 13.814-5.9 19.374-0.76 5.424 5.015 5.9 13.425 1.076 19.02-0.4 0.459-0.835 0.887-1.3 1.28l0.04-0.04zM430.635 697.67h186.57c7.627 0.006 13.806 6.193 13.8 13.82 0 7.633-6.187 13.82-13.82 13.82h-186.55c-7.634 0-13.824-6.186-13.83-13.82 0-7.633 6.187-13.82 13.82-13.82h0.01z" fill="#3585F9" /><path d="M512.005 97.43c-228.59 0-414.56 186-414.56 414.55a426.747 426.747 0 0 0 6.51 71c0 0.13 0.25 0.08 0.3 0.19a13.66 13.66 0 0 0 13.07 10c7.634 0 13.824-6.186 13.83-13.82a12.086 12.086 0 0 0-0.28-1.33l0.25-0.11a386.429 386.429 0 0 1-6-66C125.105 298.22 298.335 125 512.005 125s386.91 173.28 386.91 387-173.24 386.92-386.91 386.92c-142.8 0-267.21-77.58-334.24-192.69 0-0.06-0.09-0.11-0.11-0.18-0.17-0.3-0.39-0.59-0.56-0.89-3.462-6.722-11.717-9.364-18.439-5.903a13.69 13.69 0 0 0-7.421 12.313 13.526 13.526 0 0 0 2.76 7.86l-0.23 0.14c71.86 123.53 205.36 207 358.28 207 228.58 0 414.56-186 414.56-414.56s-186.02-414.58-414.6-414.58z" fill="#3585F9" /></svg>