<?xml version="1.0" encoding="UTF-8"?>
<svg width="160px" height="166px" viewBox="0 0 160 166" version="1.1" xmlns="http://www.w3.org/2000/svg" xmlns:xlink="http://www.w3.org/1999/xlink">
    <title>图层管理</title>
    <defs>
        <linearGradient x1="94.7692362%" y1="-8.78334608%" x2="34.2163851%" y2="72.7941843%" id="linearGradient-1">
            <stop stop-color="#7FFFD3" offset="0%"></stop>
            <stop stop-color="#04C994" offset="100%"></stop>
        </linearGradient>
        <linearGradient x1="95.5578512%" y1="0%" x2="4.44214876%" y2="100%" id="linearGradient-2">
            <stop stop-color="#979797" stop-opacity="0" offset="0%"></stop>
            <stop stop-color="#FFFFFF" stop-opacity="0.380945592" offset="100%"></stop>
        </linearGradient>
        <linearGradient x1="50%" y1="0%" x2="50%" y2="100%" id="linearGradient-3">
            <stop stop-color="#F8FFFC" stop-opacity="0.264051744" offset="0.0649117135%"></stop>
            <stop stop-color="#BAFFD9" stop-opacity="0.650779884" offset="100%"></stop>
        </linearGradient>
        <linearGradient x1="87.2185421%" y1="46.5523289%" x2="7.33836665%" y2="39.2027158%" id="linearGradient-4">
            <stop stop-color="#FFFFFF" stop-opacity="0" offset="0%"></stop>
            <stop stop-color="#FFFFFF" stop-opacity="0.907393876" offset="100%"></stop>
        </linearGradient>
        <linearGradient x1="50%" y1="4.44214876%" x2="78.0381387%" y2="95.5578512%" id="linearGradient-5">
            <stop stop-color="#FFFFFF" stop-opacity="0" offset="0%"></stop>
            <stop stop-color="#FFFFFF" stop-opacity="0.721960535" offset="100%"></stop>
        </linearGradient>
        <linearGradient x1="0%" y1="-1.42445471%" x2="65.529278%" y2="61.3079803%" id="linearGradient-6">
            <stop stop-color="#FFFFFF" stop-opacity="0.888509684" offset="0%"></stop>
            <stop stop-color="#FFFFFF" stop-opacity="0" offset="100%"></stop>
        </linearGradient>
    </defs>
    <g id="页面-1" stroke="none" stroke-width="1" fill="none" fill-rule="evenodd">
        <g id="毛玻璃质感图标" transform="translate(-83.000000, -272.000000)">
            <g id="图层管理" transform="translate(83.000000, 272.000000)">
                <rect id="背景" fill="#304B68" x="0" y="0" width="160" height="166" rx="40"></rect>
                <g id="icon_图层管理_常态" transform="translate(18.000000, 23.000000)">
                    <rect id="选中背景" x="0" y="0" width="120" height="120" rx="60"></rect>
                    <path d="M84,75.5 C84.9664983,75.5 85.8414983,75.8917508 86.4748737,76.5251263 C87.1082492,77.1585017 87.5,78.0335017 87.5,79 L87.5,79 L87.5,89 C87.5,89.9664983 87.1082492,90.8414983 86.4748737,91.4748737 C85.8414983,92.1082492 84.9664983,92.5 84,92.5 L84,92.5 L29,92.5 C28.0335017,92.5 27.1585017,92.1082492 26.5251263,91.4748737 C25.8917508,90.8414983 25.5,89.9664983 25.5,89 L25.5,89 L25.5,79 C25.5,78.0335017 25.8917508,77.1585017 26.5251263,76.5251263 C27.1585017,75.8917508 28.0335017,75.5 29,75.5 L29,75.5 Z M84,51.5 C84.9664983,51.5 85.8414983,51.8917508 86.4748737,52.5251263 C87.1082492,53.1585017 87.5,54.0335017 87.5,55 L87.5,55 L87.5,65 C87.5,65.9664983 87.1082492,66.8414983 86.4748737,67.4748737 C85.8414983,68.1082492 84.9664983,68.5 84,68.5 L84,68.5 L29,68.5 C28.0335017,68.5 27.1585017,68.1082492 26.5251263,67.4748737 C25.8917508,66.8414983 25.5,65.9664983 25.5,65 L25.5,65 L25.5,55 C25.5,54.0335017 25.8917508,53.1585017 26.5251263,52.5251263 C27.1585017,51.8917508 28.0335017,51.5 29,51.5 L29,51.5 Z M84,27.5 C84.9664983,27.5 85.8414983,27.8917508 86.4748737,28.5251263 C87.1082492,29.1585017 87.5,30.0335017 87.5,31 L87.5,31 L87.5,41 C87.5,41.9664983 87.1082492,42.8414983 86.4748737,43.4748737 C85.8414983,44.1082492 84.9664983,44.5 84,44.5 L84,44.5 L29,44.5 C28.0335017,44.5 27.1585017,44.1082492 26.5251263,43.4748737 C25.8917508,42.8414983 25.5,41.9664983 25.5,41 L25.5,41 L25.5,31 C25.5,30.0335017 25.8917508,29.1585017 26.5251263,28.5251263 C27.1585017,27.8917508 28.0335017,27.5 29,27.5 L29,27.5 Z" id="形状结合" stroke="url(#linearGradient-2)" fill="url(#linearGradient-1)"></path>
                    <path d="M106.05855,65.5204802 L101.052925,64.6223531 C100.655018,63.5640177 100.168182,62.5299391 99.6019421,61.548516 C99.0357021,60.567093 98.3812559,59.6230701 97.6672207,58.7541551 L99.3927602,53.9671475 C99.6602071,53.2295413 99.4398706,52.4076217 98.8386242,51.9006916 L98.7160278,51.7952375 C96.3058961,49.7704905 93.5705509,48.2048382 90.5797314,47.1596911 L90.4254891,47.1064209 C89.6865977,46.8485173 88.8597952,47.0685516 88.3404714,47.6669127 L85.009691,51.5507027 C82.7441101,51.1917147 80.4561222,51.1982387 78.1971414,51.5880314 L74.8983265,47.7375715 C74.3904798,47.1427798 73.56117,46.9303347 72.8166112,47.1977751 L72.6629957,47.2526247 C69.7112126,48.320664 66.8911226,49.9499503 64.4909101,51.9739872 L64.3666335,52.0796877 C63.7629011,52.5912126 63.5321041,53.4161266 63.7929356,54.1536295 L65.4824489,58.9609721 C64.0339897,60.7199057 62.8917081,62.6884146 62.0740237,64.8151762 L57.0107125,65.7674508 C56.2383528,65.9153504 55.6264456,66.5197399 55.4831331,67.2941104 L55.4521141,67.454414 C54.8670812,70.5790438 54.8514486,73.7272732 55.3957403,76.8232155 L55.425706,76.9821863 C55.560865,77.7516147 56.1620166,78.3535213 56.9370258,78.4956363 L62.0014226,79.4004887 C62.3934625,80.448654 62.8795764,81.4695892 63.4370148,82.435757 C64.000321,83.412095 64.6408194,84.3438357 65.3460528,85.1974955 L63.6072398,90.0328525 C63.3397929,90.7704587 63.5601294,91.5923783 64.1613758,92.0993084 L64.2839722,92.2047625 C66.6911701,94.2244244 69.4294491,95.7951618 72.4202686,96.8403089 L72.5745109,96.8935791 C73.3134023,97.1514827 74.1402048,96.9314484 74.6595286,96.3330873 L78.0153181,92.4212883 C80.2676728,92.7811374 82.5453684,92.7805598 84.7859769,92.3946014 L88.1016735,96.2624285 C88.6095202,96.8572202 89.43883,97.0696653 90.1833888,96.8022249 L90.3370043,96.7473753 C91.818042,96.2103825 93.2573311,95.5415668 94.631353,94.7477357 C96.005375,93.9539046 97.3089837,93.0380313 98.5090899,92.0260128 L98.6333665,91.9203123 C99.2370989,91.4087874 99.4678959,90.5838734 99.2070644,89.8463705 L97.5241405,85.0623415 C98.9880381,83.2944884 100.140612,81.3200332 100.962721,79.1771551 L105.989288,78.2325492 C106.761647,78.0846496 107.373554,77.4802601 107.516867,76.7058896 L107.547886,76.545586 C108.132919,73.4209562 108.148551,70.2727268 107.60426,67.1767845 L107.574294,67.0178137 C107.431777,66.2594167 106.833559,65.6625952 106.05855,65.5204802 Z" id="形状" stroke="url(#linearGradient-4)" fill="url(#linearGradient-3)" fill-rule="nonzero"></path>
                    <path d="M81.6348172,82.0465147 C75.559163,82.0465147 70.6348172,77.3460027 70.6348172,71.5465147 C70.6348172,65.7470266 75.559163,61.0465147 81.6348172,61.0465147 C87.7104713,61.0465147 92.6348172,65.7470266 92.6348172,71.5465147 C92.6348172,77.3460027 87.7104713,82.0465147 81.6348172,82.0465147 Z" id="路径" stroke="url(#linearGradient-6)" fill-opacity="0.48" fill="url(#linearGradient-5)" fill-rule="nonzero"></path>
                </g>
            </g>
        </g>
    </g>
</svg>